<?xml version="1.0" standalone="no"?>
<!DOCTYPE svg PUBLIC "-//W3C//DTD SVG 20010904//EN"
 "http://www.w3.org/TR/2001/REC-SVG-20010904/DTD/svg10.dtd">
<svg version="1.0" xmlns="http://www.w3.org/2000/svg"
 width="128.000000pt" height="128.000000pt" viewBox="0 0 128.000000 128.000000"
 preserveAspectRatio="xMidYMid meet">

<g transform="translate(0.000000,128.000000) scale(0.100000,-0.100000)"
fill="#000000" stroke="none">
<path d="M0 640 l0 -640 640 0 640 0 0 640 0 640 -640 0 -640 0 0 -640z m972
425 c3 -3 -10 -56 -29 -118 -19 -61 -50 -165 -68 -229 -19 -65 -48 -145 -66
-179 -63 -117 -180 -192 -304 -195 -64 -1 -64 -1 -10 3 43 3 55 7 45 14 -11 7
-6 8 14 3 19 -5 27 -3 23 3 -4 6 0 14 9 17 8 3 12 2 9 -4 -3 -6 -1 -10 5 -10
6 0 13 6 16 14 3 8 11 13 18 10 18 -7 94 53 132 103 42 55 102 215 75 198 -7
-3 -8 0 -5 9 3 9 10 16 14 16 12 0 33 97 24 111 -4 7 -3 9 3 6 15 -9 46 119
35 140 -13 23 -21 7 -63 -132 -27 -90 -40 -121 -54 -123 -21 -5 -21 -8 25 158
37 128 43 140 74 140 11 0 28 5 36 11 18 12 -65 2 -90 -11 -8 -5 -28 -55 -44
-112 -89 -312 -115 -367 -194 -407 -79 -39 -169 -30 -214 21 -10 11 -18 16
-18 12 0 -5 -5 -2 -10 6 -13 21 -12 58 2 62 15 5 40 102 27 107 -6 1 -2 9 7
16 10 7 18 28 20 51 4 74 3 71 14 54 8 -11 9 -9 5 10 -3 14 -1 38 4 53 6 15 7
27 1 27 -21 0 -100 -255 -100 -325 0 -34 -5 -55 -12 -57 -9 -3 -4 -18 15 -49
27 -42 27 -42 3 -14 -48 56 -60 94 -47 144 13 48 7 68 -8 30 -6 -15 -10 -18
-10 -8 -1 9 7 24 18 33 16 15 35 62 45 116 2 8 8 26 13 40 22 54 26 73 12 65
-9 -6 -11 -3 -6 9 4 10 7 22 7 27 0 6 4 8 9 5 5 -3 16 5 25 19 21 32 36 32 36
0 0 -31 6 -31 31 -2 30 36 25 49 -18 41 -78 -14 -77 -13 -133 -171 -28 -81
-54 -170 -57 -197 -5 -50 6 -151 14 -128 6 17 20 15 27 -4 3 -8 2 -13 -3 -10
-5 3 -11 0 -14 -8 -9 -23 42 -87 86 -107 23 -10 36 -19 29 -19 -7 0 -26 7 -42
15 -17 9 -30 13 -30 10 0 -4 -17 14 -39 39 -46 53 -66 124 -57 194 9 62 114
374 131 387 18 15 166 39 174 28 4 -4 33 -38 64 -74 l57 -66 -20 -54 c-11 -30
-18 -42 -15 -26 4 19 1 27 -9 27 -8 0 -19 -12 -25 -27 -10 -28 -10 -28 -9 -3
1 14 -2 45 -7 70 -5 25 -10 50 -10 55 -4 36 -18 76 -27 73 -6 -2 -21 -33 -34
-68 -13 -36 -29 -74 -34 -85 -30 -59 -60 -174 -60 -226 0 -51 4 -62 28 -84 50
-47 120 -46 181 3 53 43 74 88 131 292 29 102 56 192 60 200 10 19 148 48 162
35z m79 -133 c12 -17 18 -38 16 -45 -3 -7 -6 -4 -6 6 -1 11 -6 15 -13 11 -6
-4 -8 -3 -4 4 3 6 2 13 -3 16 -10 6 -61 94 -61 104 0 7 45 -52 71 -96z m-214
46 c-3 -8 -6 -5 -6 6 -1 11 2 17 5 13 3 -3 4 -12 1 -19z m70 -30 c-3 -8 -6 -5
-6 6 -1 11 2 17 5 13 3 -3 4 -12 1 -19z m-10 -40 c-3 -8 -6 -5 -6 6 -1 11 2
17 5 13 3 -3 4 -12 1 -19z m-16 -41 c-10 -9 -11 -8 -5 6 3 10 9 15 12 12 3 -3
0 -11 -7 -18z m-86 -173 c-13 -10 -16 -17 -9 -22 9 -5 6 -23 -9 -62 -41 -111
-172 -202 -285 -199 -32 2 -37 3 -17 6 48 6 127 42 119 54 -3 5 3 6 12 2 11
-4 15 -3 10 5 -3 6 -1 14 5 18 8 5 9 3 4 -6 -5 -8 -3 -11 4 -9 7 3 12 9 12 14
0 14 40 55 49 50 10 -6 34 23 55 70 12 27 14 40 6 43 -6 2 -11 8 -11 13 0 4 6
6 14 3 8 -3 16 3 19 15 3 12 13 21 24 21 17 -1 17 -2 -2 -16z m-415 -24 c0 -5
-5 -10 -11 -10 -5 0 -7 5 -4 10 3 6 8 10 11 10 2 0 4 -4 4 -10z m-13 -52 c-3
-8 -6 -5 -6 6 -1 11 2 17 5 13 3 -3 4 -12 1 -19z m13 -132 c24 -27 29 -35 14
-28 -20 11 -54 53 -54 68 0 4 1 5 3 3 1 -2 18 -22 37 -43z m15 14 c10 -11 16
-20 13 -20 -3 0 -13 9 -23 20 -10 11 -16 20 -13 20 3 0 13 -9 23 -20z m-60
-70 c10 -11 16 -20 13 -20 -3 0 -13 9 -23 20 -10 11 -16 20 -13 20 3 0 13 -9
23 -20z m95 -3 c13 -5 13 -6 -1 -6 -8 -1 -24 6 -35 15 -19 15 -19 15 1 6 11
-5 27 -12 35 -15z m47 7 c-3 -3 -12 -4 -19 -1 -8 3 -5 6 6 6 11 1 17 -2 13 -5z
m36 -51 c-13 -2 -35 -2 -50 0 -16 2 -5 4 22 4 28 0 40 -2 28 -4z"/>
<path d="M921 994 c0 -11 3 -14 6 -6 3 7 2 16 -1 19 -3 4 -6 -2 -5 -13z"/>
<path d="M826 849 c-9 -34 -15 -63 -13 -66 2 -2 12 24 21 58 10 33 16 63 13
65 -2 2 -11 -24 -21 -57z"/>
<path d="M362 570 c0 -14 2 -19 5 -12 2 6 2 18 0 25 -3 6 -5 1 -5 -13z"/>
<path d="M740 580 c-6 -11 -8 -20 -6 -20 3 0 10 9 16 20 6 11 8 20 6 20 -3 0
-10 -9 -16 -20z"/>
<path d="M709 533 c-13 -16 -12 -17 4 -4 16 13 21 21 13 21 -2 0 -10 -8 -17
-17z"/>
<path d="M664 518 l-19 -23 23 19 c21 18 27 26 19 26 -2 0 -12 -10 -23 -22z"/>
<path d="M664 488 l-19 -23 23 19 c21 18 27 26 19 26 -2 0 -12 -10 -23 -22z"/>
</g>
</svg>
